<svg width="128" height="128" viewBox="0 0 128 128" fill="none" xmlns="http://www.w3.org/2000/svg">
<circle cx="35" cy="96" r="18.5" stroke="white" stroke-width="7"/>
<path d="M31 64C31 66.2091 32.7909 68 35 68C37.2091 68 39 66.2091 39 64L31 64ZM39 64L39 7.78829e-07L31 1.12852e-06L31 64L39 64Z" fill="white"/>
<path fill-rule="evenodd" clip-rule="evenodd" d="M96.9567 24.0589L92.1178 15.6777L87.2789 24.0589L78.8978 19.22V28.8978H69.22L74.0589 37.2789L65.6777 42.1178L74.0589 46.9567L69.22 55.3378H78.8978V65.0155L87.2789 60.1767L92.1178 68.5578L96.9567 60.1767L105.338 65.0155V55.3378H115.016L110.177 46.9567L118.558 42.1178L110.177 37.2789L115.016 28.8978H105.338V19.22L96.9567 24.0589ZM104.561 36.5607C105.146 35.9749 105.146 35.0251 104.561 34.4393C103.975 33.8536 103.025 33.8536 102.439 34.4393L89.5 47.3787L82.5607 40.4393C81.9749 39.8536 81.0251 39.8536 80.4393 40.4393C79.8536 41.0251 79.8536 41.9749 80.4393 42.5607L88.4393 50.5607C89.0251 51.1464 89.9749 51.1464 90.5607 50.5607L104.561 36.5607Z" fill="white"/>
</svg>
