<svg width="600" height="600" viewBox="0 0 600 600" fill="none" xmlns="http://www.w3.org/2000/svg">
<circle cx="179" cy="494" r="70" stroke="white" stroke-width="18"/>
<circle cx="179" cy="110" r="70" stroke="white" stroke-width="18"/>
<circle cx="179" cy="302" r="18" stroke="white" stroke-width="18"/>
<path d="M179 210L179 394" stroke="white" stroke-width="18" stroke-linecap="round"/>
<path fill-rule="evenodd" clip-rule="evenodd" d="M384.5 428C454.364 428 511 371.364 511 301.5C511 231.636 454.364 175 384.5 175C314.636 175 258 231.636 258 301.5C258 371.364 314.636 428 384.5 428ZM467.696 239.944C471.211 243.458 471.211 249.157 467.696 252.672L365.52 354.848L365.507 354.86L365.495 354.872L365.255 355.112C361.741 358.627 356.042 358.627 352.528 355.112C351.91 354.495 351.401 353.81 351.001 353.081L302.944 305.024C299.429 301.509 299.429 295.811 302.944 292.296C306.458 288.782 312.157 288.782 315.672 292.296L359.143 335.768L454.968 239.944C458.483 236.429 464.181 236.429 467.696 239.944Z" fill="white"/>
</svg>
